<?xml version="1.0" encoding="utf-8"?>
<svg width="451px" height="115.12207px" viewBox="0 0 451 115.12207" version="1.1" xmlns:xlink="http://www.w3.org/1999/xlink" xmlns="http://www.w3.org/2000/svg">
  <g id="Group">
    <path d="M316 11.4971C316 5.14743 321.147 0 327.497 0C333.847 0 338.994 5.14743 338.994 11.4971C338.994 17.8468 333.847 22.9942 327.497 22.9942C321.147 22.9942 316 17.8468 316 11.4971Z" id="Oval" fill="#FFFFFF" fill-rule="evenodd" stroke="none" />
    <path d="M387.197 27.9278L431 29" id="Vector-3" fill="none" fill-rule="evenodd" stroke="#FFFFFF" stroke-width="20" />
    <path d="M127.947 28.5557C93.8035 28.5557 47.3119 37.8738 21.6377 61.5204C17.7953 65.0593 -6.2902 87.2258 1.56404 94.6611C17.8968 110.123 62.832 93.2368 78.7823 86.8536C106.437 75.7864 133.005 60.1644 161.084 50.6923C172.875 46.7149 168.622 74.9348 177.953 72.4443C188.978 69.5017 193.568 51.0218 204.256 49.767C220.314 47.8817 215.627 82.7966 231.956 75.3488C247.805 68.1201 265.505 5.89665 266.584 5.878C266.661 5.87666 266.584 6.03295 266.584 6.11043C266.584 6.18791 266.584 6.26539 266.584 6.34286C266.584 6.42022 266.596 6.4985 266.584 6.57493C266.417 7.64651 266.2 8.71023 266.047 9.78395C265.82 11.3721 265.647 12.9672 265.446 14.5589C265.246 16.1505 265.142 17.7573 264.845 19.3338C263.841 24.666 263.081 29.8151 262.405 35.2215C261.376 43.4566 260.875 51.8576 260.875 60.1503C260.875 89.9613 271.162 32.8286 276.366 41.0341C281.464 49.0719 290.479 84.1875 316.51 55.0306C325.243 45.2486 323.174 29.6273 321.104 50.3157C319.997 61.3734 321.623 73.1022 335.053 67.8297C351.374 61.4224 364.667 52.8495 374.864 38.294C387.485 20.2772 401.675 -13.2557 387.114 23.1354C374.1 55.659 366.331 80.4747 408.766 59.225" id="Vector" fill="none" fill-rule="evenodd" stroke="#FFFFFF" stroke-width="20" />
  </g>
</svg>